<mxfile host="Electron" modified="2023-08-23T07:53:37.364Z" agent="5.0 (Windows NT 10.0; Win64; x64) AppleWebKit/537.36 (KHTML, like Gecko) draw.io/20.3.0 Chrome/104.0.5112.114 Electron/20.1.3 Safari/537.36" etag="JETyL5HrSFpAnfbu6Sil" compressed="false" version="20.3.0" type="device">
  <diagram name="PE003A" id="1CP9VX86ncTdAmcYDIcw">
    <mxGraphModel dx="563" dy="337" grid="1" gridSize="2" guides="1" tooltips="1" connect="1" arrows="1" fold="1" page="1" pageScale="1" pageWidth="1169" pageHeight="827" math="0" shadow="0">
      <root>
        <mxCell id="22vkG-h5v2N9dKBLQ-ZE-0" />
        <mxCell id="22vkG-h5v2N9dKBLQ-ZE-124" value="Connection" style="" parent="22vkG-h5v2N9dKBLQ-ZE-0" />
        <object label="Connection" PipingConnector="Y" LabelConnector="N" SignalConnector="N" Direction="0" id="tgIBiP5Iari-vlwsQj28-79">
          <mxCell style="vsdxID=1407;fillColor=none;gradientColor=none;shape=stencil(rVFbDsIgEDwNnyQU4glqvcfGblsilmZBS28vZGMsxg9j/JvZmX1kR5g2TLCg0CpE8hdcbR8nYY5CaztPSDZmJEwnTDt4wpH8be6ZL1CcBV39vUxI3KdKh1YbswPTEzuBzlmiVGmKau9zUKM+jlJJQrJBko8QrZ+rrQ5oRJnXyMHBWElhRVx25ebnw/5zVvPFWRm83jxY5zilvf4eSy5xpKZ7AA==);strokeColor=#00ff00;strokeWidth=1;points=[[0.5,0.5,0,0,0]];labelBackgroundColor=none;rounded=0;html=1;whiteSpace=wrap;aspect=fixed;noLabel=1;snapToPoint=1;container=0;fontSize=16;fontColor=#FF0000;" vertex="1" parent="22vkG-h5v2N9dKBLQ-ZE-124">
            <mxGeometry x="522" y="298" width="12" height="12" as="geometry" />
          </mxCell>
        </object>
        <object label="Connection" PipingConnector="Y" LabelConnector="N" SignalConnector="N" Direction="180" id="tgIBiP5Iari-vlwsQj28-80">
          <mxCell style="vsdxID=1407;fillColor=none;gradientColor=none;shape=stencil(rVFbDsIgEDwNnyQU4glqvcfGblsilmZBS28vZGMsxg9j/JvZmX1kR5g2TLCg0CpE8hdcbR8nYY5CaztPSDZmJEwnTDt4wpH8be6ZL1CcBV39vUxI3KdKh1YbswPTEzuBzlmiVGmKau9zUKM+jlJJQrJBko8QrZ+rrQ5oRJnXyMHBWElhRVx25ebnw/5zVvPFWRm83jxY5zilvf4eSy5xpKZ7AA==);strokeColor=#00ff00;strokeWidth=1;points=[[0.5,0.5,0,0,0]];labelBackgroundColor=none;rounded=0;html=1;whiteSpace=wrap;aspect=fixed;noLabel=1;snapToPoint=1;container=0;fontSize=16;fontColor=#FF0000;" vertex="1" parent="22vkG-h5v2N9dKBLQ-ZE-124">
            <mxGeometry x="330" y="298" width="12" height="12" as="geometry" />
          </mxCell>
        </object>
        <mxCell id="22vkG-h5v2N9dKBLQ-ZE-135" value="Label" style="" parent="22vkG-h5v2N9dKBLQ-ZE-0" />
        <mxCell id="22vkG-h5v2N9dKBLQ-ZE-136" value="Origo" style="" parent="22vkG-h5v2N9dKBLQ-ZE-0" />
        <object label="origo" id="tgIBiP5Iari-vlwsQj28-78">
          <mxCell style="vsdxID=1407;fillColor=none;gradientColor=none;shape=stencil(rVFbDsIgEDwNnyQU4glqvcfGblsilmZBS28vZGMsxg9j/JvZmX1kR5g2TLCg0CpE8hdcbR8nYY5CaztPSDZmJEwnTDt4wpH8be6ZL1CcBV39vUxI3KdKh1YbswPTEzuBzlmiVGmKau9zUKM+jlJJQrJBko8QrZ+rrQ5oRJnXyMHBWElhRVx25ebnw/5zVvPFWRm83jxY5zilvf4eSy5xpKZ7AA==);strokeColor=#ff0000;strokeWidth=1;points=[[0.5,0.5,0,0,0]];labelBackgroundColor=none;rounded=0;html=1;whiteSpace=wrap;aspect=fixed;noLabel=1;snapToPoint=1;fontSize=9;fontColor=#FF0000;" vertex="1" parent="22vkG-h5v2N9dKBLQ-ZE-136">
            <mxGeometry x="332" y="300" width="8" height="8" as="geometry" />
          </mxCell>
        </object>
        <object label="Symbol" Width="12" Height="6" UoM="mm" id="22vkG-h5v2N9dKBLQ-ZE-138">
          <mxCell style="" parent="22vkG-h5v2N9dKBLQ-ZE-0" />
        </object>
        <mxCell id="tgIBiP5Iari-vlwsQj28-29" value="" style="group" vertex="1" connectable="0" parent="22vkG-h5v2N9dKBLQ-ZE-138">
          <mxGeometry x="348" y="257" width="144" height="95" as="geometry" />
        </mxCell>
        <mxCell id="tgIBiP5Iari-vlwsQj28-10" value="" style="group;rotation=-90;" vertex="1" connectable="0" parent="tgIBiP5Iari-vlwsQj28-29">
          <mxGeometry x="-18" y="29" width="44" as="geometry" />
        </mxCell>
        <mxCell id="tgIBiP5Iari-vlwsQj28-7" value="" style="endArrow=none;html=1;rounded=0;fontSize=9;fontColor=#FF0000;" edge="1" parent="tgIBiP5Iari-vlwsQj28-10">
          <mxGeometry width="50" height="50" relative="1" as="geometry">
            <mxPoint x="22" y="22" as="sourcePoint" />
            <mxPoint x="22" y="12" as="targetPoint" />
          </mxGeometry>
        </mxCell>
        <mxCell id="tgIBiP5Iari-vlwsQj28-8" value="" style="endArrow=none;html=1;rounded=0;fontSize=9;fontColor=#FF0000;" edge="1" parent="tgIBiP5Iari-vlwsQj28-10">
          <mxGeometry width="50" height="50" relative="1" as="geometry">
            <mxPoint x="22" y="5" as="sourcePoint" />
            <mxPoint x="22" y="-5" as="targetPoint" />
          </mxGeometry>
        </mxCell>
        <mxCell id="tgIBiP5Iari-vlwsQj28-9" value="" style="endArrow=none;html=1;rounded=0;fontSize=9;fontColor=#FF0000;" edge="1" parent="tgIBiP5Iari-vlwsQj28-10">
          <mxGeometry width="50" height="50" relative="1" as="geometry">
            <mxPoint x="22" y="-12" as="sourcePoint" />
            <mxPoint x="22" y="-22" as="targetPoint" />
          </mxGeometry>
        </mxCell>
        <mxCell id="tgIBiP5Iari-vlwsQj28-11" value="" style="endArrow=none;html=1;rounded=0;fontSize=9;fontColor=#FF0000;" edge="1" parent="tgIBiP5Iari-vlwsQj28-29">
          <mxGeometry width="50" height="50" relative="1" as="geometry">
            <mxPoint x="4" y="86" as="sourcePoint" />
            <mxPoint x="4" y="76" as="targetPoint" />
          </mxGeometry>
        </mxCell>
        <mxCell id="tgIBiP5Iari-vlwsQj28-12" value="" style="endArrow=none;html=1;rounded=0;fontSize=9;fontColor=#FF0000;" edge="1" parent="tgIBiP5Iari-vlwsQj28-29">
          <mxGeometry width="50" height="50" relative="1" as="geometry">
            <mxPoint x="4" y="68" as="sourcePoint" />
            <mxPoint x="4" y="58" as="targetPoint" />
          </mxGeometry>
        </mxCell>
        <mxCell id="tgIBiP5Iari-vlwsQj28-15" value="" style="curved=1;endArrow=none;html=1;rounded=0;fontSize=9;fontColor=#FF0000;endFill=0;entryX=0.032;entryY=0.01;entryDx=0;entryDy=0;entryPerimeter=0;" edge="1" parent="tgIBiP5Iari-vlwsQj28-29">
          <mxGeometry width="50" height="50" relative="1" as="geometry">
            <mxPoint x="4" y="5" as="sourcePoint" />
            <mxPoint x="-5.856000000000108" y="-0.03999999999996362" as="targetPoint" />
            <Array as="points">
              <mxPoint />
            </Array>
          </mxGeometry>
        </mxCell>
        <mxCell id="tgIBiP5Iari-vlwsQj28-18" value="" style="curved=1;endArrow=none;html=1;rounded=0;fontSize=9;fontColor=#FF0000;endFill=0;entryX=0.083;entryY=0.938;entryDx=0;entryDy=0;entryPerimeter=0;exitX=0.123;exitY=0.988;exitDx=0;exitDy=0;exitPerimeter=0;" edge="1" parent="tgIBiP5Iari-vlwsQj28-29">
          <mxGeometry width="50" height="50" relative="1" as="geometry">
            <mxPoint x="11.615999999999985" y="93.84799999999996" as="sourcePoint" />
            <mxPoint x="3.9360000000000355" y="89.048" as="targetPoint" />
            <Array as="points">
              <mxPoint x="4" y="94" />
            </Array>
          </mxGeometry>
        </mxCell>
        <mxCell id="tgIBiP5Iari-vlwsQj28-57" value="" style="group" vertex="1" connectable="0" parent="tgIBiP5Iari-vlwsQj28-29">
          <mxGeometry x="122" width="4" height="94" as="geometry" />
        </mxCell>
        <mxCell id="tgIBiP5Iari-vlwsQj28-58" value="" style="group;rotation=-90;" vertex="1" connectable="0" parent="tgIBiP5Iari-vlwsQj28-57">
          <mxGeometry x="-18" y="29" width="44" as="geometry" />
        </mxCell>
        <mxCell id="tgIBiP5Iari-vlwsQj28-59" value="" style="endArrow=none;html=1;rounded=0;fontSize=9;fontColor=#FF0000;" edge="1" parent="tgIBiP5Iari-vlwsQj28-58">
          <mxGeometry width="50" height="50" relative="1" as="geometry">
            <mxPoint x="22" y="22" as="sourcePoint" />
            <mxPoint x="22" y="12" as="targetPoint" />
          </mxGeometry>
        </mxCell>
        <mxCell id="tgIBiP5Iari-vlwsQj28-60" value="" style="endArrow=none;html=1;rounded=0;fontSize=9;fontColor=#FF0000;" edge="1" parent="tgIBiP5Iari-vlwsQj28-58">
          <mxGeometry width="50" height="50" relative="1" as="geometry">
            <mxPoint x="22" y="5" as="sourcePoint" />
            <mxPoint x="22" y="-5" as="targetPoint" />
          </mxGeometry>
        </mxCell>
        <mxCell id="tgIBiP5Iari-vlwsQj28-61" value="" style="endArrow=none;html=1;rounded=0;fontSize=9;fontColor=#FF0000;" edge="1" parent="tgIBiP5Iari-vlwsQj28-58">
          <mxGeometry width="50" height="50" relative="1" as="geometry">
            <mxPoint x="22" y="-12" as="sourcePoint" />
            <mxPoint x="22" y="-22" as="targetPoint" />
          </mxGeometry>
        </mxCell>
        <mxCell id="tgIBiP5Iari-vlwsQj28-62" value="" style="endArrow=none;html=1;rounded=0;fontSize=9;fontColor=#FF0000;" edge="1" parent="tgIBiP5Iari-vlwsQj28-57">
          <mxGeometry width="50" height="50" relative="1" as="geometry">
            <mxPoint x="4" y="86" as="sourcePoint" />
            <mxPoint x="4" y="76" as="targetPoint" />
          </mxGeometry>
        </mxCell>
        <mxCell id="tgIBiP5Iari-vlwsQj28-63" value="" style="endArrow=none;html=1;rounded=0;fontSize=9;fontColor=#FF0000;" edge="1" parent="tgIBiP5Iari-vlwsQj28-57">
          <mxGeometry width="50" height="50" relative="1" as="geometry">
            <mxPoint x="4" y="68" as="sourcePoint" />
            <mxPoint x="4" y="58" as="targetPoint" />
          </mxGeometry>
        </mxCell>
        <mxCell id="tgIBiP5Iari-vlwsQj28-64" value="" style="curved=1;endArrow=none;html=1;rounded=0;fontSize=9;fontColor=#FF0000;endFill=0;entryX=0.032;entryY=0.01;entryDx=0;entryDy=0;entryPerimeter=0;" edge="1" parent="tgIBiP5Iari-vlwsQj28-57">
          <mxGeometry width="50" height="50" relative="1" as="geometry">
            <mxPoint x="4" y="5" as="sourcePoint" />
            <mxPoint x="-5.856000000000108" y="-0.03999999999996362" as="targetPoint" />
            <Array as="points">
              <mxPoint />
            </Array>
          </mxGeometry>
        </mxCell>
        <mxCell id="tgIBiP5Iari-vlwsQj28-65" value="" style="curved=1;endArrow=none;html=1;rounded=0;fontSize=9;fontColor=#FF0000;endFill=0;entryX=0.083;entryY=0.938;entryDx=0;entryDy=0;entryPerimeter=0;exitX=0.123;exitY=0.988;exitDx=0;exitDy=0;exitPerimeter=0;" edge="1" parent="tgIBiP5Iari-vlwsQj28-57">
          <mxGeometry width="50" height="50" relative="1" as="geometry">
            <mxPoint x="11.615999999999985" y="93.84799999999996" as="sourcePoint" />
            <mxPoint x="3.9360000000000355" y="89.048" as="targetPoint" />
            <Array as="points">
              <mxPoint x="4" y="94" />
            </Array>
          </mxGeometry>
        </mxCell>
        <mxCell id="tgIBiP5Iari-vlwsQj28-39" value="" style="group" vertex="1" connectable="0" parent="22vkG-h5v2N9dKBLQ-ZE-138">
          <mxGeometry x="390" y="256" width="66" height="96" as="geometry" />
        </mxCell>
        <mxCell id="tgIBiP5Iari-vlwsQj28-40" value="" style="group;rotation=-90;" vertex="1" connectable="0" parent="tgIBiP5Iari-vlwsQj28-39">
          <mxGeometry x="-18" y="30" width="44" as="geometry" />
        </mxCell>
        <mxCell id="tgIBiP5Iari-vlwsQj28-41" value="" style="endArrow=none;html=1;rounded=0;fontSize=9;fontColor=#FF0000;" edge="1" parent="tgIBiP5Iari-vlwsQj28-40">
          <mxGeometry width="50" height="50" relative="1" as="geometry">
            <mxPoint x="22" y="22" as="sourcePoint" />
            <mxPoint x="22" y="12" as="targetPoint" />
          </mxGeometry>
        </mxCell>
        <mxCell id="tgIBiP5Iari-vlwsQj28-42" value="" style="endArrow=none;html=1;rounded=0;fontSize=9;fontColor=#FF0000;" edge="1" parent="tgIBiP5Iari-vlwsQj28-40">
          <mxGeometry width="50" height="50" relative="1" as="geometry">
            <mxPoint x="22" y="5" as="sourcePoint" />
            <mxPoint x="22" y="-5" as="targetPoint" />
          </mxGeometry>
        </mxCell>
        <mxCell id="tgIBiP5Iari-vlwsQj28-43" value="" style="endArrow=none;html=1;rounded=0;fontSize=9;fontColor=#FF0000;" edge="1" parent="tgIBiP5Iari-vlwsQj28-40">
          <mxGeometry width="50" height="50" relative="1" as="geometry">
            <mxPoint x="22" y="-12" as="sourcePoint" />
            <mxPoint x="22" y="-22" as="targetPoint" />
          </mxGeometry>
        </mxCell>
        <mxCell id="tgIBiP5Iari-vlwsQj28-44" value="" style="endArrow=none;html=1;rounded=0;fontSize=9;fontColor=#FF0000;" edge="1" parent="tgIBiP5Iari-vlwsQj28-39">
          <mxGeometry width="50" height="50" relative="1" as="geometry">
            <mxPoint x="4" y="87" as="sourcePoint" />
            <mxPoint x="4" y="77" as="targetPoint" />
          </mxGeometry>
        </mxCell>
        <mxCell id="tgIBiP5Iari-vlwsQj28-45" value="" style="endArrow=none;html=1;rounded=0;fontSize=9;fontColor=#FF0000;" edge="1" parent="tgIBiP5Iari-vlwsQj28-39">
          <mxGeometry width="50" height="50" relative="1" as="geometry">
            <mxPoint x="4" y="69" as="sourcePoint" />
            <mxPoint x="4" y="59" as="targetPoint" />
          </mxGeometry>
        </mxCell>
        <mxCell id="tgIBiP5Iari-vlwsQj28-46" value="" style="curved=1;endArrow=none;html=1;rounded=0;fontSize=9;fontColor=#FF0000;endFill=0;entryX=0.032;entryY=0.01;entryDx=0;entryDy=0;entryPerimeter=0;" edge="1" parent="tgIBiP5Iari-vlwsQj28-39">
          <mxGeometry width="50" height="50" relative="1" as="geometry">
            <mxPoint x="4" y="6" as="sourcePoint" />
            <mxPoint x="-5.856000000000108" y="0.9600000000000364" as="targetPoint" />
            <Array as="points">
              <mxPoint y="1" />
            </Array>
          </mxGeometry>
        </mxCell>
        <mxCell id="tgIBiP5Iari-vlwsQj28-47" value="" style="curved=1;endArrow=none;html=1;rounded=0;fontSize=9;fontColor=#FF0000;endFill=0;entryX=0.083;entryY=0.938;entryDx=0;entryDy=0;entryPerimeter=0;exitX=0.123;exitY=0.988;exitDx=0;exitDy=0;exitPerimeter=0;" edge="1" parent="tgIBiP5Iari-vlwsQj28-39">
          <mxGeometry width="50" height="50" relative="1" as="geometry">
            <mxPoint x="11.615999999999985" y="94.84799999999996" as="sourcePoint" />
            <mxPoint x="3.9360000000000355" y="90.048" as="targetPoint" />
            <Array as="points">
              <mxPoint x="4" y="95" />
            </Array>
          </mxGeometry>
        </mxCell>
        <mxCell id="tgIBiP5Iari-vlwsQj28-48" value="" style="group" vertex="1" connectable="0" parent="tgIBiP5Iari-vlwsQj28-39">
          <mxGeometry x="42" y="1" width="4" height="94" as="geometry" />
        </mxCell>
        <mxCell id="tgIBiP5Iari-vlwsQj28-49" value="" style="group;rotation=-90;" vertex="1" connectable="0" parent="tgIBiP5Iari-vlwsQj28-48">
          <mxGeometry x="-18" y="29" width="44" as="geometry" />
        </mxCell>
        <mxCell id="tgIBiP5Iari-vlwsQj28-50" value="" style="endArrow=none;html=1;rounded=0;fontSize=9;fontColor=#FF0000;" edge="1" parent="tgIBiP5Iari-vlwsQj28-49">
          <mxGeometry width="50" height="50" relative="1" as="geometry">
            <mxPoint x="22" y="22" as="sourcePoint" />
            <mxPoint x="22" y="12" as="targetPoint" />
          </mxGeometry>
        </mxCell>
        <mxCell id="tgIBiP5Iari-vlwsQj28-51" value="" style="endArrow=none;html=1;rounded=0;fontSize=9;fontColor=#FF0000;" edge="1" parent="tgIBiP5Iari-vlwsQj28-49">
          <mxGeometry width="50" height="50" relative="1" as="geometry">
            <mxPoint x="22" y="5" as="sourcePoint" />
            <mxPoint x="22" y="-5" as="targetPoint" />
          </mxGeometry>
        </mxCell>
        <mxCell id="tgIBiP5Iari-vlwsQj28-52" value="" style="endArrow=none;html=1;rounded=0;fontSize=9;fontColor=#FF0000;" edge="1" parent="tgIBiP5Iari-vlwsQj28-49">
          <mxGeometry width="50" height="50" relative="1" as="geometry">
            <mxPoint x="22" y="-12" as="sourcePoint" />
            <mxPoint x="22" y="-22" as="targetPoint" />
          </mxGeometry>
        </mxCell>
        <mxCell id="tgIBiP5Iari-vlwsQj28-53" value="" style="endArrow=none;html=1;rounded=0;fontSize=9;fontColor=#FF0000;" edge="1" parent="tgIBiP5Iari-vlwsQj28-48">
          <mxGeometry width="50" height="50" relative="1" as="geometry">
            <mxPoint x="4" y="86" as="sourcePoint" />
            <mxPoint x="4" y="76" as="targetPoint" />
          </mxGeometry>
        </mxCell>
        <mxCell id="tgIBiP5Iari-vlwsQj28-54" value="" style="endArrow=none;html=1;rounded=0;fontSize=9;fontColor=#FF0000;" edge="1" parent="tgIBiP5Iari-vlwsQj28-48">
          <mxGeometry width="50" height="50" relative="1" as="geometry">
            <mxPoint x="4" y="68" as="sourcePoint" />
            <mxPoint x="4" y="58" as="targetPoint" />
          </mxGeometry>
        </mxCell>
        <mxCell id="tgIBiP5Iari-vlwsQj28-55" value="" style="curved=1;endArrow=none;html=1;rounded=0;fontSize=9;fontColor=#FF0000;endFill=0;entryX=0.032;entryY=0.01;entryDx=0;entryDy=0;entryPerimeter=0;" edge="1" parent="tgIBiP5Iari-vlwsQj28-48">
          <mxGeometry width="50" height="50" relative="1" as="geometry">
            <mxPoint x="4" y="5" as="sourcePoint" />
            <mxPoint x="-5.856000000000108" y="-0.03999999999996362" as="targetPoint" />
            <Array as="points">
              <mxPoint />
            </Array>
          </mxGeometry>
        </mxCell>
        <mxCell id="tgIBiP5Iari-vlwsQj28-56" value="" style="curved=1;endArrow=none;html=1;rounded=0;fontSize=9;fontColor=#FF0000;endFill=0;entryX=0.083;entryY=0.938;entryDx=0;entryDy=0;entryPerimeter=0;exitX=0.123;exitY=0.988;exitDx=0;exitDy=0;exitPerimeter=0;" edge="1" parent="tgIBiP5Iari-vlwsQj28-48">
          <mxGeometry width="50" height="50" relative="1" as="geometry">
            <mxPoint x="11.615999999999985" y="93.84799999999996" as="sourcePoint" />
            <mxPoint x="3.9360000000000355" y="89.048" as="targetPoint" />
            <Array as="points">
              <mxPoint x="4" y="94" />
            </Array>
          </mxGeometry>
        </mxCell>
        <mxCell id="tgIBiP5Iari-vlwsQj28-66" value="" style="group" vertex="1" connectable="0" parent="22vkG-h5v2N9dKBLQ-ZE-138">
          <mxGeometry x="504" y="257" width="4" height="94" as="geometry" />
        </mxCell>
        <mxCell id="tgIBiP5Iari-vlwsQj28-67" value="" style="group;rotation=-90;" vertex="1" connectable="0" parent="tgIBiP5Iari-vlwsQj28-66">
          <mxGeometry x="-18" y="29" width="44" as="geometry" />
        </mxCell>
        <mxCell id="tgIBiP5Iari-vlwsQj28-68" value="" style="endArrow=none;html=1;rounded=0;fontSize=9;fontColor=#FF0000;" edge="1" parent="tgIBiP5Iari-vlwsQj28-67">
          <mxGeometry width="50" height="50" relative="1" as="geometry">
            <mxPoint x="22" y="22" as="sourcePoint" />
            <mxPoint x="22" y="12" as="targetPoint" />
          </mxGeometry>
        </mxCell>
        <mxCell id="tgIBiP5Iari-vlwsQj28-69" value="" style="endArrow=none;html=1;rounded=0;fontSize=9;fontColor=#FF0000;" edge="1" parent="tgIBiP5Iari-vlwsQj28-67">
          <mxGeometry width="50" height="50" relative="1" as="geometry">
            <mxPoint x="22" y="5" as="sourcePoint" />
            <mxPoint x="22" y="-5" as="targetPoint" />
          </mxGeometry>
        </mxCell>
        <mxCell id="tgIBiP5Iari-vlwsQj28-70" value="" style="endArrow=none;html=1;rounded=0;fontSize=9;fontColor=#FF0000;" edge="1" parent="tgIBiP5Iari-vlwsQj28-67">
          <mxGeometry width="50" height="50" relative="1" as="geometry">
            <mxPoint x="22" y="-12" as="sourcePoint" />
            <mxPoint x="22" y="-22" as="targetPoint" />
          </mxGeometry>
        </mxCell>
        <mxCell id="tgIBiP5Iari-vlwsQj28-71" value="" style="endArrow=none;html=1;rounded=0;fontSize=9;fontColor=#FF0000;" edge="1" parent="tgIBiP5Iari-vlwsQj28-66">
          <mxGeometry width="50" height="50" relative="1" as="geometry">
            <mxPoint x="4" y="86" as="sourcePoint" />
            <mxPoint x="4" y="76" as="targetPoint" />
          </mxGeometry>
        </mxCell>
        <mxCell id="tgIBiP5Iari-vlwsQj28-72" value="" style="endArrow=none;html=1;rounded=0;fontSize=9;fontColor=#FF0000;" edge="1" parent="tgIBiP5Iari-vlwsQj28-66">
          <mxGeometry width="50" height="50" relative="1" as="geometry">
            <mxPoint x="4" y="68" as="sourcePoint" />
            <mxPoint x="4" y="58" as="targetPoint" />
          </mxGeometry>
        </mxCell>
        <mxCell id="tgIBiP5Iari-vlwsQj28-73" value="" style="curved=1;endArrow=none;html=1;rounded=0;fontSize=9;fontColor=#FF0000;endFill=0;entryX=0.032;entryY=0.01;entryDx=0;entryDy=0;entryPerimeter=0;" edge="1" parent="tgIBiP5Iari-vlwsQj28-66">
          <mxGeometry width="50" height="50" relative="1" as="geometry">
            <mxPoint x="4" y="5" as="sourcePoint" />
            <mxPoint x="-5.856000000000108" y="-0.03999999999996362" as="targetPoint" />
            <Array as="points">
              <mxPoint />
            </Array>
          </mxGeometry>
        </mxCell>
        <mxCell id="tgIBiP5Iari-vlwsQj28-74" value="" style="curved=1;endArrow=none;html=1;rounded=0;fontSize=9;fontColor=#FF0000;endFill=0;entryX=0.083;entryY=0.938;entryDx=0;entryDy=0;entryPerimeter=0;exitX=0.123;exitY=0.988;exitDx=0;exitDy=0;exitPerimeter=0;" edge="1" parent="tgIBiP5Iari-vlwsQj28-66">
          <mxGeometry width="50" height="50" relative="1" as="geometry">
            <mxPoint x="11.615999999999985" y="93.84799999999996" as="sourcePoint" />
            <mxPoint x="3.9360000000000355" y="89.048" as="targetPoint" />
            <Array as="points">
              <mxPoint x="4" y="94" />
            </Array>
          </mxGeometry>
        </mxCell>
        <mxCell id="tgIBiP5Iari-vlwsQj28-75" value="" style="rounded=0;whiteSpace=wrap;html=1;strokeColor=#000000;fontSize=9;fontColor=#FF0000;fillColor=none;" vertex="1" parent="22vkG-h5v2N9dKBLQ-ZE-138">
          <mxGeometry x="336" y="256" width="192" height="96" as="geometry" />
        </mxCell>
      </root>
    </mxGraphModel>
  </diagram>
</mxfile>
